<?xml version="1.0" encoding="UTF-8"?>
<svg id="Layer_1" xmlns="http://www.w3.org/2000/svg" version="1.1" xmlns:xlink="http://www.w3.org/1999/xlink" viewBox="0 0 410.92 93.87">
  <!-- Generator: Adobe Illustrator 29.6.0, SVG Export Plug-In . SVG Version: 2.1.1 Build 207)  -->
  <defs>
    <style>
      .st0 {
        fill: url(#linear-gradient2);
      }

      .st1 {
        fill: url(#linear-gradient1);
      }

      .st2 {
        fill: #2a3b8e;
      }

      .st3 {
        fill: none;
      }

      .st4 {
        fill: #579542;
      }

      .st5 {
        fill: url(#linear-gradient3);
      }

      .st6 {
        fill: url(#linear-gradient);
      }
    </style>
    <linearGradient id="linear-gradient" x1="0" y1="66.71" x2="107.4" y2="66.71" gradientUnits="userSpaceOnUse">
      <stop offset="0" stop-color="#2a3b8e" stop-opacity="0"/>
      <stop offset=".11" stop-color="#2a3b8e" stop-opacity=".13"/>
      <stop offset=".33" stop-color="#2a3b8e" stop-opacity=".45"/>
      <stop offset=".65" stop-color="#2a3b8e" stop-opacity=".98"/>
      <stop offset=".66" stop-color="#2a3b8e"/>
      <stop offset="1" stop-color="#2a3b8e"/>
    </linearGradient>
    <linearGradient id="linear-gradient1" y1="70.75" y2="70.75" xlink:href="#linear-gradient"/>
    <linearGradient id="linear-gradient2" y1="74.79" y2="74.79" xlink:href="#linear-gradient"/>
    <linearGradient id="linear-gradient3" y1="78.83" y2="78.83" xlink:href="#linear-gradient"/>
  </defs>
  <g>
    <path class="st2" d="M287.42,49.68h-14.5v-24.17h13.94v4.43h-8.5v5.38h7.91v4.42h-7.91v5.53h9.05v4.42Z"/>
    <path class="st2" d="M311.03,49.68h-6.46l-4.16-7.87c-.08-.15-.16-.35-.24-.62-.08-.27-.16-.6-.25-.99h-.07c-.04.18-.11.41-.2.7s-.21.62-.35.99l-4.18,7.8h-6.49l7.7-12.09-7.05-12.09h6.62l3.46,7.25c.13.28.26.59.38.94.12.34.23.71.35,1.1h.07c.07-.24.17-.53.29-.89s.28-.76.46-1.22l3.84-7.18h6.07l-7.25,11.98,7.45,12.19Z"/>
    <path class="st2" d="M319.36,41.76v7.92h-5.44v-24.17h8.53c3.04,0,5.33.66,6.85,1.97,1.52,1.31,2.28,3.29,2.28,5.93,0,2.49-.87,4.51-2.62,6.04-1.75,1.53-4.08,2.3-7,2.3h-2.6ZM319.36,29.69v7.94h2.14c1.45,0,2.54-.33,3.26-1,.72-.67,1.09-1.67,1.09-3.01s-.36-2.3-1.09-2.95-1.81-.98-3.26-.98h-2.14Z"/>
    <path class="st2" d="M354.76,49.68h-6.15l-3.22-5.95c-.52-.97-1.04-1.7-1.56-2.19-.52-.49-1.12-.78-1.79-.84h-1.47v8.98h-5.44v-24.17h8.63c2.93,0,5.13.57,6.6,1.71,1.47,1.14,2.2,2.85,2.2,5.13,0,1.61-.47,2.99-1.42,4.16-.94,1.16-2.24,2.02-3.88,2.57v.07c.72.23,1.39.7,2.01,1.42s1.15,1.47,1.59,2.24l3.89,6.88ZM340.57,29.59v7h2.36c1.18,0,2.12-.35,2.83-1.06s1.06-1.58,1.06-2.63c0-1.1-.32-1.93-.94-2.48-.63-.55-1.58-.83-2.85-.83h-2.46Z"/>
    <path class="st2" d="M372.15,49.68h-14.5v-24.17h13.94v4.43h-8.5v5.38h7.91v4.42h-7.91v5.53h9.05v4.42Z"/>
    <path class="st2" d="M374.06,48.08l2.26-4.23c1.21.72,2.27,1.21,3.16,1.46.89.25,1.83.38,2.82.38,1.3,0,2.26-.25,2.88-.75.62-.5.93-1.18.93-2.05s-.25-1.47-.74-1.91-1.4-.82-2.73-1.12c-2.7-.62-4.66-1.49-5.88-2.63s-1.84-2.72-1.84-4.75.79-3.78,2.38-5.22c1.58-1.43,3.8-2.15,6.66-2.15,1.19,0,2.36.13,3.51.4,1.15.27,2.24.66,3.27,1.18l-2.04,4.3c-.93-.53-1.81-.9-2.63-1.13-.82-.22-1.58-.34-2.29-.34-1.09,0-1.94.21-2.54.64-.61.43-.91,1.04-.91,1.84,0,.73.28,1.29.83,1.69.56.39,1.55.75,2.99,1.08,2.62.6,4.51,1.48,5.68,2.66,1.17,1.18,1.75,2.84,1.75,4.99,0,2.29-.81,4.15-2.42,5.56-1.61,1.42-3.95,2.12-7.02,2.12-1.34,0-2.74-.18-4.2-.53-1.46-.35-2.75-.85-3.88-1.49Z"/>
    <path class="st2" d="M393.41,48.08l2.26-4.23c1.21.72,2.27,1.21,3.16,1.46.89.25,1.83.38,2.82.38,1.3,0,2.26-.25,2.88-.75.62-.5.93-1.18.93-2.05s-.25-1.47-.74-1.91-1.4-.82-2.73-1.12c-2.7-.62-4.66-1.49-5.88-2.63s-1.84-2.72-1.84-4.75.79-3.78,2.38-5.22c1.58-1.43,3.8-2.15,6.66-2.15,1.19,0,2.36.13,3.51.4,1.15.27,2.24.66,3.27,1.18l-2.04,4.3c-.93-.53-1.81-.9-2.63-1.13-.82-.22-1.58-.34-2.29-.34-1.09,0-1.94.21-2.54.64-.61.43-.91,1.04-.91,1.84,0,.73.28,1.29.83,1.69.56.39,1.55.75,2.99,1.08,2.62.6,4.51,1.48,5.68,2.66,1.17,1.18,1.75,2.84,1.75,4.99,0,2.29-.81,4.15-2.42,5.56-1.61,1.42-3.95,2.12-7.02,2.12-1.34,0-2.74-.18-4.2-.53-1.46-.35-2.75-.85-3.88-1.49Z"/>
    <path class="st4" d="M284.44,80.77h-11.98v-20.12h4.53v16.45h7.45v3.68Z"/>
    <path class="st4" d="M294.67,81.12c-2.88,0-5.23-.94-7.04-2.81-1.82-1.88-2.72-4.32-2.72-7.33,0-3.18.92-5.75,2.76-7.72,1.84-1.96,4.28-2.95,7.33-2.95,2.87,0,5.19.94,6.97,2.82,1.77,1.88,2.66,4.36,2.66,7.44s-.92,5.71-2.76,7.65c-1.84,1.94-4.24,2.9-7.19,2.9ZM294.76,77.2c1.56,0,2.8-.56,3.72-1.69s1.38-2.69,1.38-4.69-.44-3.71-1.33-4.87c-.89-1.16-2.1-1.74-3.65-1.74s-2.85.6-3.79,1.79c-.94,1.19-1.4,2.77-1.4,4.74s.47,3.57,1.4,4.73,2.16,1.74,3.68,1.74Z"/>
    <path class="st4" d="M324.48,79.25c-.94.58-2.02,1.04-3.25,1.37-1.23.33-2.59.5-4.08.5-3.18,0-5.72-.84-7.61-2.52-1.89-1.68-2.84-4.2-2.84-7.57,0-3.07.96-5.62,2.88-7.66,1.92-2.04,4.59-3.06,7.99-3.06,1.26,0,2.44.11,3.52.32,1.08.21,2.21.55,3.38,1.03l-1.42,3.51c-.94-.37-1.83-.65-2.69-.81-.86-.17-1.79-.25-2.79-.25-1.88,0-3.37.56-4.46,1.69-1.09,1.13-1.64,2.8-1.64,5.03s.54,3.88,1.63,4.92,2.51,1.57,4.26,1.57c.54,0,1.03-.04,1.46-.11.43-.07.8-.18,1.12-.32v-3.96h-4.03v-3.62h8.56v9.95Z"/>
    <path class="st4" d="M332.92,80.77h-4.53v-20.12h4.53v20.12Z"/>
    <path class="st4" d="M335.86,79.44l1.88-3.52c1.01.6,1.89,1,2.63,1.21.74.21,1.53.32,2.35.32,1.08,0,1.88-.21,2.4-.62.51-.42.77-.98.77-1.71s-.21-1.22-.62-1.59c-.41-.37-1.17-.68-2.27-.93-2.25-.51-3.88-1.24-4.9-2.19-1.02-.94-1.53-2.26-1.53-3.96s.66-3.15,1.98-4.34c1.32-1.19,3.17-1.79,5.54-1.79.99,0,1.96.11,2.92.34s1.86.55,2.72.98l-1.7,3.58c-.78-.44-1.51-.75-2.19-.94-.68-.19-1.32-.28-1.91-.28-.91,0-1.61.18-2.12.53-.5.36-.76.87-.76,1.53,0,.61.23,1.08.7,1.4.46.33,1.29.63,2.49.9,2.18.5,3.76,1.23,4.73,2.22.97.98,1.46,2.37,1.46,4.15,0,1.91-.67,3.45-2.01,4.63-1.34,1.18-3.29,1.77-5.84,1.77-1.11,0-2.28-.15-3.49-.44s-2.29-.71-3.23-1.24Z"/>
    <path class="st4" d="M367.73,64.34h-5.74v16.43h-4.55v-16.43h-5.71v-3.69h16v3.69Z"/>
    <path class="st4" d="M374.98,80.77h-4.53v-20.12h4.53v20.12Z"/>
    <path class="st4" d="M394.68,79.79c-1.06.47-2.08.81-3.07,1.02-.99.21-2.06.32-3.21.32-3.13,0-5.6-.88-7.4-2.63s-2.7-4.26-2.7-7.53c0-3.06.98-5.6,2.95-7.62s4.56-3.03,7.77-3.03c1.08,0,2.04.08,2.88.22s1.73.39,2.65.73l-1.33,3.66c-.69-.25-1.36-.43-1.99-.55-.64-.11-1.32-.17-2.06-.17-1.65,0-3.07.58-4.28,1.73-1.21,1.16-1.81,2.72-1.81,4.69s.53,3.63,1.58,4.79c1.05,1.15,2.5,1.73,4.33,1.73.48,0,1.08-.08,1.82-.23s1.49-.41,2.28-.76l1.61,3.63Z"/>
    <path class="st4" d="M395.85,79.44l1.88-3.52c1.01.6,1.89,1,2.63,1.21.74.21,1.53.32,2.35.32,1.08,0,1.88-.21,2.4-.62.51-.42.77-.98.77-1.71s-.21-1.22-.62-1.59c-.41-.37-1.17-.68-2.27-.93-2.25-.51-3.88-1.24-4.9-2.19-1.02-.94-1.53-2.26-1.53-3.96s.66-3.15,1.98-4.34c1.32-1.19,3.17-1.79,5.54-1.79.99,0,1.96.11,2.92.34s1.86.55,2.72.98l-1.7,3.58c-.78-.44-1.51-.75-2.19-.94-.68-.19-1.32-.28-1.91-.28-.91,0-1.61.18-2.12.53-.5.36-.76.87-.76,1.53,0,.61.23,1.08.7,1.4.46.33,1.29.63,2.49.9,2.18.5,3.76,1.23,4.73,2.22.97.98,1.46,2.37,1.46,4.15,0,1.91-.67,3.45-2.01,4.63-1.34,1.18-3.29,1.77-5.84,1.77-1.11,0-2.28-.15-3.49-.44s-2.29-.71-3.23-1.24Z"/>
  </g>
  <g>
    <g>
      <rect class="st6" y="65.77" width="107.4" height="1.89"/>
      <rect class="st1" y="69.81" width="107.4" height="1.89"/>
      <rect class="st0" y="73.85" width="107.4" height="1.89"/>
      <rect class="st5" y="77.89" width="107.4" height="1.89"/>
    </g>
    <g>
      <path class="st2" d="M176.35,69.6h-.48v2.81h.48c.9,0,1.34-.47,1.34-1.4s-.45-1.4-1.34-1.4Z"/>
      <path class="st2" d="M188.52,69.6h-.53v3.31h.53c.86,0,1.29-.57,1.29-1.71,0-1.07-.43-1.6-1.29-1.6Z"/>
      <path class="st2" d="M200.17,69.6h-.48v2.81h.48c.9,0,1.34-.47,1.34-1.4s-.45-1.4-1.34-1.4Z"/>
    </g>
    <g>
      <path class="st2" d="M125.18,65.77v14.01h123.38v-14.01h-123.38ZM135.04,77h-5.78v-8.15h5.29v.82h-2.92v2.47h2.45v.82h-2.45v3.23h3.42v.82ZM146.13,77h-1.81l-3.4-5.16v5.16h-.79v-8.15h1.5l3.71,5.57v-5.57h.79v8.15ZM157.6,69.66h-2v7.33h-2.51v-7.33h-2.01v-.82h6.52v.82ZM168.38,77h-5.78v-8.15h5.29v.82h-2.92v2.47h2.45v.82h-2.45v3.23h3.42v.82ZM177.68,77c-.16-.38-.24-.85-.24-1.42v-.48s-.02-.61-.02-.61c0-.94-.38-1.41-1.14-1.41h-.41v3.92h-2.36v-8.15h3.51c.91,0,1.64.19,2.19.58.55.38.82.9.82,1.54,0,.99-.59,1.63-1.76,1.93.6.22.99.47,1.17.73.18.27.3.78.36,1.55.08.92.23,1.52.46,1.82h-2.57ZM188.81,73.66h-.82v3.34h-2.36v-8.15h3.52c1.99,0,2.99.8,2.99,2.39s-1.11,2.42-3.33,2.42ZM201.5,77c-.16-.38-.24-.85-.24-1.42v-.48s-.02-.61-.02-.61c0-.94-.38-1.41-1.14-1.41h-.41v3.92h-2.36v-8.15h3.51c.91,0,1.64.19,2.19.58.55.38.82.9.82,1.54,0,.99-.59,1.63-1.76,1.93.6.22.99.47,1.17.73.18.27.3.78.36,1.55.08.92.23,1.52.46,1.82h-2.57ZM211.81,77h-2.36v-8.15h2.36v8.15ZM234.49,77h-5.78v-8.15h5.29v.82h-2.92v2.47h2.45v.82h-2.45v3.23h3.42v.82ZM244.47,76.44c-.55.47-1.28.7-2.19.7-2.02,0-3.03-.78-3.03-2.35,0-.13,0-.28.03-.47l1.14-.25c-.09.35-.13.65-.13.9,0,1.01.58,1.52,1.74,1.52.93,0,1.39-.36,1.39-1.09,0-.54-.56-1.02-1.67-1.43-1.6-.59-2.41-1.53-2.41-2.82,0-.73.27-1.32.8-1.77.53-.45,1.24-.67,2.11-.67,1.79,0,2.69.81,2.69,2.42l-1.1.2c.05-.22.07-.4.07-.55,0-.95-.57-1.42-1.73-1.42-.91,0-1.36.33-1.36.98,0,.49.51.91,1.52,1.26,1.96.67,2.94,1.67,2.94,2.99,0,.77-.28,1.39-.82,1.86ZM222.47,76.44c-.55.47-1.28.7-2.19.7-2.02,0-3.03-.78-3.03-2.35,0-.13,0-.28.03-.47l1.14-.25c-.09.35-.13.65-.13.9,0,1.01.58,1.52,1.74,1.52.93,0,1.39-.36,1.39-1.09,0-.54-.56-1.02-1.67-1.43-1.6-.59-2.41-1.53-2.41-2.82,0-.73.27-1.32.8-1.77.53-.45,1.24-.67,2.11-.67,1.79,0,2.69.81,2.69,2.42l-1.1.2c.05-.22.07-.4.07-.55,0-.95-.57-1.42-1.73-1.42-.91,0-1.36.33-1.36.98,0,.49.51.91,1.52,1.26,1.96.67,2.94,1.67,2.94,2.99,0,.77-.28,1.39-.82,1.86Z"/>
      <path class="st3" d="M179.43,73.63c-.18-.27-.57-.51-1.17-.73,1.17-.3,1.76-.94,1.76-1.93,0-.64-.27-1.16-.82-1.54-.55-.38-1.27-.58-2.19-.58h-3.51v8.15h2.36v-3.92h.41c.76,0,1.14.47,1.14,1.41v.61s.02.48.02.48c0,.57.08,1.04.24,1.42h2.57c-.23-.29-.38-.9-.46-1.82-.06-.77-.18-1.29-.36-1.55Z"/>
      <polygon class="st3" points="164.96 72.95 167.42 72.95 167.42 72.13 164.96 72.13 164.96 69.66 167.88 69.66 167.88 68.84 162.6 68.84 162.6 77 168.38 77 168.38 76.18 164.96 76.18 164.96 72.95"/>
      <polygon class="st3" points="151.08 69.66 153.09 69.66 153.09 77 155.6 77 155.6 69.66 157.6 69.66 157.6 68.84 151.08 68.84 151.08 69.66"/>
      <path class="st3" d="M189.15,68.84h-3.52v8.15h2.36v-3.34h.82c2.22,0,3.33-.81,3.33-2.42s-1-2.39-2.99-2.39Z"/>
      <polygon class="st3" points="131.62 72.95 134.07 72.95 134.07 72.13 131.62 72.13 131.62 69.66 134.54 69.66 134.54 68.84 129.25 68.84 129.25 77 135.04 77 135.04 76.18 131.62 76.18 131.62 72.95"/>
      <polygon class="st3" points="145.33 74.42 141.62 68.84 140.12 68.84 140.12 77 140.91 77 140.91 71.84 144.32 77 146.13 77 146.13 68.84 145.33 68.84 145.33 74.42"/>
      <rect class="st3" x="209.45" y="68.84" width="2.36" height="8.15"/>
      <path class="st3" d="M203.24,73.63c-.18-.27-.57-.51-1.17-.73,1.17-.3,1.76-.94,1.76-1.93,0-.64-.27-1.16-.82-1.54-.55-.38-1.27-.58-2.19-.58h-3.51v8.15h2.36v-3.92h.41c.76,0,1.14.47,1.14,1.41v.61s.02.48.02.48c0,.57.08,1.04.24,1.42h2.57c-.23-.29-.38-.9-.46-1.82-.06-.77-.18-1.29-.36-1.55Z"/>
      <polygon class="st3" points="231.08 72.95 233.53 72.95 233.53 72.13 231.08 72.13 231.08 69.66 234 69.66 234 68.84 228.71 68.84 228.71 77 234.49 77 234.49 76.18 231.08 76.18 231.08 72.95"/>
    </g>
    <path class="st2" d="M36.05,25.5l-6.95,1.28c.3-1.38.45-2.54.45-3.48,0-6-3.64-8.99-10.92-8.99-5.74,0-8.62,2.07-8.62,6.2,0,3.1,3.21,5.76,9.64,7.97,12.39,4.26,18.59,10.56,18.59,18.89,0,4.89-1.74,8.81-5.21,11.77-3.48,2.96-8.1,4.44-13.87,4.44-12.77,0-19.16-4.95-19.16-14.85,0-.81.06-1.8.19-2.99l7.22-1.59c-.55,2.19-.83,4.09-.83,5.71,0,6.4,3.67,9.6,11,9.6,5.87,0,8.8-2.31,8.8-6.91,0-3.43-3.51-6.44-10.54-9.03C5.68,39.8.6,33.84.6,25.66c0-4.63,1.69-8.37,5.08-11.2,3.39-2.83,7.84-4.25,13.36-4.25,11.34,0,17,5.1,17,15.3Z"/>
    <path class="st2" d="M87.93,62.65V24.6c4.31,0,8.9-.34,13.79-1.02v39.07h-13.79ZM94.92,9.79c4.28,0,6.42,1.66,6.42,4.99s-2.14,4.99-6.42,4.99-6.42-1.66-6.42-4.99,2.14-4.99,6.42-4.99Z"/>
    <path class="st4" d="M248.56,62.65h-13.79v-28.6c0-2.49-.73-3.74-2.19-3.74-3.38,0-5.06,3.59-5.06,10.77v21.58h-13.79v-28c0-2.85-.66-4.27-1.96-4.27-3.43,0-5.14,3.58-5.14,10.73v21.54h-13.79V24.45c4.66,0,9.26-.32,13.79-.94v6.58c3.25-4.36,7.26-6.54,12.02-6.54,3.98,0,6.94,2.05,8.88,6.16,3.07-4.16,6.91-6.23,11.53-6.23,6.35,0,9.52,3.21,9.52,9.64v29.55Z"/>
    <path class="st2" d="M70.43,23.58c-5.42,0-9.61,2.51-12.58,7.52V11.52h2c1.17,0,1.76-1.42.93-2.25L51.89.39c-.51-.51-1.35-.51-1.86,0l-8.89,8.89c-.83.83-.24,2.25.93,2.25h2v51.13h13.79v-18.97c0-3.22.65-6.24,1.97-9.05,1.31-2.81,2.72-4.21,4.23-4.21s2.19,1.1,2.19,3.29v28.95h13.79v-30.46c0-5.74-3.2-8.62-9.6-8.62Z"/>
    <path class="st4" d="M178.11,47.98l8.89-8.89c.51-.51.51-1.35,0-1.86l-8.89-8.89c-.83-.83-2.25-.24-2.25.93v2h-8.77v-12.41h17.97v-5.18h-32.93v48.97h32.93v-5.18h-17.97v-12.41h8.77v2c0,1.17,1.42,1.76,2.25.93Z"/>
    <path class="st2" d="M142.12,29c-2.37-3.61-5.53-5.42-9.48-5.42-3.7,0-6.85,1.93-9.45,5.78v-5.74c-5.29.66-9.89.98-13.79.98v57.75h-2.16c-1.17,0-1.76,1.42-.93,2.25l8.89,8.89c.51.51,1.35.51,1.86,0l8.89-8.89c.83-.83.24-2.25-.93-2.25h-1.83v-22.83c2.37,2.77,5.39,4.16,9.07,4.16,8.94,0,13.41-6.71,13.41-20.14,0-6.07-1.18-10.91-3.55-14.53ZM127.42,58.11c-2.92,0-4.38-4.92-4.38-14.77s1.52-14.21,4.57-14.21c2.49,0,3.74,4.74,3.74,14.21s-1.31,14.77-3.93,14.77Z"/>
  </g>
</svg>