<?xml version="1.0" encoding="UTF-8"?>
<svg id="Layer_1" xmlns="http://www.w3.org/2000/svg" version="1.1" xmlns:xlink="http://www.w3.org/1999/xlink" viewBox="0 0 250 250">
  <!-- Generator: Adobe Illustrator 29.6.0, SVG Export Plug-In . SVG Version: 2.1.1 Build 207)  -->
  <defs>
    <style>
      .st0 {
        fill: url(#linear-gradient2);
      }

      .st1 {
        fill: #fff;
      }

      .st2 {
        fill: url(#linear-gradient1);
      }

      .st3 {
        fill: #2a3b8e;
      }

      .st4 {
        fill: none;
      }

      .st5 {
        fill: #579542;
      }

      .st6 {
        fill: url(#linear-gradient3);
      }

      .st7 {
        fill: url(#linear-gradient);
      }
    </style>
    <linearGradient id="linear-gradient" x1="13.62" y1="109.4" x2="109.87" y2="109.4" gradientTransform="translate(0 252.13) scale(1 -1)" gradientUnits="userSpaceOnUse">
      <stop offset="0" stop-color="#2a3b8e" stop-opacity="0"/>
      <stop offset=".11" stop-color="#2a3b8e" stop-opacity=".13"/>
      <stop offset=".33" stop-color="#2a3b8e" stop-opacity=".45"/>
      <stop offset=".65" stop-color="#2a3b8e" stop-opacity=".98"/>
      <stop offset=".66" stop-color="#2a3b8e"/>
      <stop offset="1" stop-color="#2a3b8e"/>
    </linearGradient>
    <linearGradient id="linear-gradient1" x1="13.62" y1="105.78" x2="109.87" y2="105.78" gradientTransform="translate(0 252.13) scale(1 -1)" gradientUnits="userSpaceOnUse">
      <stop offset="0" stop-color="#2a3b8e" stop-opacity="0"/>
      <stop offset=".11" stop-color="#2a3b8e" stop-opacity=".13"/>
      <stop offset=".33" stop-color="#2a3b8e" stop-opacity=".45"/>
      <stop offset=".65" stop-color="#2a3b8e" stop-opacity=".98"/>
      <stop offset=".66" stop-color="#2a3b8e"/>
      <stop offset="1" stop-color="#2a3b8e"/>
    </linearGradient>
    <linearGradient id="linear-gradient2" x1="13.62" y1="102.16" x2="109.87" y2="102.16" gradientTransform="translate(0 252.13) scale(1 -1)" gradientUnits="userSpaceOnUse">
      <stop offset="0" stop-color="#2a3b8e" stop-opacity="0"/>
      <stop offset=".11" stop-color="#2a3b8e" stop-opacity=".13"/>
      <stop offset=".33" stop-color="#2a3b8e" stop-opacity=".45"/>
      <stop offset=".65" stop-color="#2a3b8e" stop-opacity=".98"/>
      <stop offset=".66" stop-color="#2a3b8e"/>
      <stop offset="1" stop-color="#2a3b8e"/>
    </linearGradient>
    <linearGradient id="linear-gradient3" x1="13.62" y1="98.54" x2="109.87" y2="98.54" gradientTransform="translate(0 252.13) scale(1 -1)" gradientUnits="userSpaceOnUse">
      <stop offset="0" stop-color="#2a3b8e" stop-opacity="0"/>
      <stop offset=".11" stop-color="#2a3b8e" stop-opacity=".13"/>
      <stop offset=".33" stop-color="#2a3b8e" stop-opacity=".45"/>
      <stop offset=".65" stop-color="#2a3b8e" stop-opacity=".98"/>
      <stop offset=".66" stop-color="#2a3b8e"/>
      <stop offset="1" stop-color="#2a3b8e"/>
    </linearGradient>
  </defs>
  <circle class="st1" cx="125" cy="125" r="125"/>
  <g>
    <rect class="st7" x="13.62" y="141.88" width="96.25" height="1.69"/>
    <rect class="st2" x="13.62" y="145.5" width="96.25" height="1.69"/>
    <rect class="st0" x="13.62" y="149.12" width="96.25" height="1.69"/>
    <rect class="st6" x="13.62" y="152.74" width="96.25" height="1.69"/>
  </g>
  <g>
    <path class="st3" d="M171.67,145.31h-.43v2.52h.43c.81,0,1.2-.42,1.2-1.25s-.4-1.25-1.2-1.25h0Z"/>
    <path class="st3" d="M182.57,145.31h-.47v2.97h.47c.77,0,1.16-.51,1.16-1.53,0-.96-.39-1.43-1.16-1.43Z"/>
    <path class="st3" d="M193.01,145.31h-.43v2.52h.43c.81,0,1.2-.42,1.2-1.25s-.4-1.25-1.2-1.25h0Z"/>
  </g>
  <g>
    <path class="st3" d="M125.81,141.88v12.56h110.57v-12.56h-110.57ZM134.64,151.94h-5.18v-7.3h4.74v.73h-2.62v2.21h2.2v.73h-2.2v2.89h3.06v.73h0ZM144.58,151.94h-1.62l-3.05-4.62v4.62h-.71v-7.3h1.34l3.32,4.99v-4.99h.71v7.3h0ZM154.86,145.37h-1.79v6.57h-2.25v-6.57h-1.8v-.73h5.84v.73h0ZM164.52,151.94h-5.18v-7.3h4.74v.73h-2.62v2.21h2.2v.73h-2.2v2.89h3.06v.73h0ZM172.86,151.94c-.14-.34-.22-.76-.22-1.27v-.43l-.02-.55c0-.84-.34-1.26-1.02-1.26h-.37v3.51h-2.11v-7.3h3.15c.82,0,1.47.17,1.96.52.49.34.73.81.73,1.38,0,.89-.53,1.46-1.58,1.73.54.2.89.42,1.05.65.16.24.27.7.32,1.39.07.82.21,1.36.41,1.63h-2.31ZM182.83,148.95h-.73v2.99h-2.11v-7.3h3.15c1.78,0,2.68.72,2.68,2.14s-.99,2.17-2.98,2.17ZM194.2,151.94c-.14-.34-.22-.76-.22-1.27v-.43l-.02-.55c0-.84-.34-1.26-1.02-1.26h-.37v3.51h-2.11v-7.3h3.15c.82,0,1.47.17,1.96.52.49.34.73.81.73,1.38,0,.89-.53,1.46-1.58,1.73.54.2.89.42,1.05.65.16.24.27.7.32,1.39.07.82.21,1.36.41,1.63h-2.31ZM203.44,151.94h-2.11v-7.3h2.11v7.3ZM223.77,151.94h-5.18v-7.3h4.74v.73h-2.62v2.21h2.2v.73h-2.2v2.89h3.06v.73h0ZM232.71,151.44c-.49.42-1.15.63-1.96.63-1.81,0-2.72-.7-2.72-2.11,0-.12,0-.25.03-.42l1.02-.22c-.08.31-.12.58-.12.81,0,.91.52,1.36,1.56,1.36.83,0,1.25-.32,1.25-.98,0-.48-.5-.91-1.5-1.28-1.43-.53-2.16-1.37-2.16-2.53,0-.65.24-1.18.72-1.59s1.11-.6,1.89-.6c1.6,0,2.41.73,2.41,2.17l-.99.18c.04-.2.06-.36.06-.49,0-.85-.51-1.27-1.55-1.27-.82,0-1.22.3-1.22.88,0,.44.46.82,1.36,1.13,1.76.6,2.63,1.5,2.63,2.68,0,.69-.25,1.25-.73,1.67h0ZM213,151.44c-.49.42-1.15.63-1.96.63-1.81,0-2.72-.7-2.72-2.11,0-.12,0-.25.03-.42l1.02-.22c-.08.31-.12.58-.12.81,0,.91.52,1.36,1.56,1.36.83,0,1.25-.32,1.25-.98,0-.48-.5-.91-1.5-1.28-1.43-.53-2.16-1.37-2.16-2.53,0-.65.24-1.18.72-1.59s1.11-.6,1.89-.6c1.6,0,2.41.73,2.41,2.17l-.99.18c.04-.2.06-.36.06-.49,0-.85-.51-1.27-1.55-1.27-.82,0-1.22.3-1.22.88,0,.44.46.82,1.36,1.13,1.76.6,2.63,1.5,2.63,2.68,0,.69-.25,1.25-.73,1.67h0Z"/>
    <path class="st4" d="M174.43,148.92c-.16-.24-.51-.46-1.05-.65,1.05-.27,1.58-.84,1.58-1.73,0-.57-.24-1.04-.73-1.38s-1.14-.52-1.96-.52h-3.15v7.3h2.11v-3.51h.37c.68,0,1.02.42,1.02,1.26v.55l.02.43c0,.51.07.93.22,1.27h2.3c-.21-.26-.34-.81-.41-1.63-.05-.69-.16-1.16-.32-1.39h0Z"/>
    <polygon class="st4" points="161.46 148.31 163.66 148.31 163.66 147.58 161.46 147.58 161.46 145.37 164.07 145.37 164.07 144.63 159.34 144.63 159.34 151.94 164.52 151.94 164.52 151.21 161.46 151.21 161.46 148.31"/>
    <polygon class="st4" points="149.02 145.37 150.82 145.37 150.82 151.94 153.07 151.94 153.07 145.37 154.86 145.37 154.86 144.63 149.02 144.63 149.02 145.37"/>
    <path class="st4" d="M183.14,144.63h-3.15v7.3h2.11v-2.99h.73c1.99,0,2.98-.73,2.98-2.17s-.9-2.14-2.68-2.14Z"/>
    <polygon class="st4" points="131.58 148.31 133.77 148.31 133.77 147.58 131.58 147.58 131.58 145.37 134.2 145.37 134.2 144.63 129.46 144.63 129.46 151.94 134.64 151.94 134.64 151.21 131.58 151.21 131.58 148.31"/>
    <polygon class="st4" points="143.87 149.63 140.54 144.63 139.2 144.63 139.2 151.94 139.9 151.94 139.9 147.32 142.96 151.94 144.58 151.94 144.58 144.63 143.87 144.63 143.87 149.63"/>
    <rect class="st4" x="201.33" y="144.63" width="2.11" height="7.3"/>
    <path class="st4" d="M195.76,148.92c-.16-.24-.51-.46-1.05-.65,1.05-.27,1.58-.84,1.58-1.73,0-.57-.24-1.04-.73-1.38s-1.14-.52-1.96-.52h-3.15v7.3h2.11v-3.51h.37c.68,0,1.02.42,1.02,1.26v.55l.02.43c0,.51.07.93.22,1.27h2.3c-.21-.26-.34-.81-.41-1.63-.05-.69-.16-1.16-.32-1.39h0Z"/>
    <polygon class="st4" points="220.71 148.31 222.91 148.31 222.91 147.58 220.71 147.58 220.71 145.37 223.33 145.37 223.33 144.63 218.59 144.63 218.59 151.94 223.77 151.94 223.77 151.21 220.71 151.21 220.71 148.31"/>
  </g>
  <path class="st3" d="M45.93,105.79l-6.23,1.15c.27-1.24.4-2.28.4-3.12,0-5.38-3.26-8.06-9.79-8.06-5.14,0-7.73,1.86-7.73,5.56,0,2.78,2.88,5.16,8.64,7.14,11.1,3.82,16.66,9.46,16.66,16.93,0,4.38-1.56,7.9-4.67,10.55-3.12,2.65-7.26,3.98-12.43,3.98-11.44,0-17.17-4.44-17.17-13.31,0-.73.05-1.61.17-2.68l6.47-1.42c-.49,1.96-.74,3.67-.74,5.12,0,5.74,3.29,8.6,9.86,8.6,5.26,0,7.89-2.07,7.89-6.19,0-3.07-3.15-5.77-9.45-8.09-9.11-3.33-13.66-8.68-13.66-16.01,0-4.15,1.51-7.5,4.55-10.04,3.04-2.54,7.03-3.81,11.97-3.81,10.16,0,15.24,4.57,15.24,13.71h0Z"/>
  <path class="st3" d="M92.42,139.08v-34.1c3.86,0,7.98-.3,12.36-.91v35.01h-12.36ZM98.69,91.71c3.84,0,5.75,1.49,5.75,4.47s-1.92,4.47-5.75,4.47-5.75-1.49-5.75-4.47,1.92-4.47,5.75-4.47Z"/>
  <path class="st5" d="M236.38,139.08h-12.36v-25.63c0-2.23-.65-3.35-1.96-3.35-3.03,0-4.53,3.22-4.53,9.65v19.34h-12.36v-25.09c0-2.55-.59-3.83-1.76-3.83-3.07,0-4.61,3.21-4.61,9.62v19.3h-12.36v-34.24c4.18,0,8.3-.29,12.36-.84v5.9c2.91-3.91,6.51-5.86,10.77-5.86,3.57,0,6.22,1.84,7.96,5.52,2.75-3.73,6.19-5.58,10.33-5.58,5.69,0,8.53,2.88,8.53,8.64v26.48l-.02-.02Z"/>
  <path class="st3" d="M76.74,104.07c-4.86,0-8.61,2.25-11.27,6.74v-17.55h1.79c1.05,0,1.58-1.27.83-2.02l-7.97-7.96c-.46-.46-1.21-.46-1.67,0l-7.97,7.97c-.74.74-.22,2.02.83,2.02h1.79v45.82h12.36v-17c0-2.89.58-5.59,1.77-8.11,1.17-2.52,2.44-3.77,3.79-3.77s1.96.99,1.96,2.95v25.94h12.36v-27.3c0-5.14-2.87-7.73-8.6-7.73h0Z"/>
  <path class="st5" d="M173.24,125.94l7.97-7.97c.46-.46.46-1.21,0-1.67l-7.97-7.97c-.74-.74-2.02-.22-2.02.83v1.79h-7.86v-11.12h16.1v-4.64h-29.51v43.89h29.51v-4.64h-16.1v-11.12h7.86v1.79c0,1.05,1.27,1.58,2.02.83h0Z"/>
  <path class="st3" d="M140.99,108.93c-2.12-3.24-4.96-4.86-8.5-4.86-3.32,0-6.14,1.73-8.47,5.18v-5.14c-4.74.59-8.86.88-12.36.88v51.75h-1.94c-1.05,0-1.58,1.27-.83,2.02l7.97,7.97c.46.46,1.21.46,1.67,0l7.97-7.97c.74-.74.22-2.02-.83-2.02h-1.64v-20.46c2.12,2.48,4.83,3.73,8.13,3.73,8.01,0,12.02-6.01,12.02-18.05,0-5.44-1.06-9.78-3.18-13.02h0ZM127.82,135.02c-2.62,0-3.93-4.41-3.93-13.24s1.36-12.73,4.1-12.73c2.23,0,3.35,4.25,3.35,12.73s-1.17,13.24-3.52,13.24Z"/>
</svg>