<?xml version="1.0" encoding="UTF-8"?>
<svg id="Layer_1" xmlns="http://www.w3.org/2000/svg" version="1.1" xmlns:xlink="http://www.w3.org/1999/xlink" viewBox="0 0 450 450">
  <!-- Generator: Adobe Illustrator 29.6.0, SVG Export Plug-In . SVG Version: 2.1.1 Build 207)  -->
  <defs>
    <style>
      .st0 {
        fill: #fff;
        fill-rule: evenodd;
      }

      .st1 {
        fill: url(#linear-gradient);
      }
    </style>
    <linearGradient id="linear-gradient" x1="5.32" y1="39.35" x2="444.68" y2="410.65" gradientUnits="userSpaceOnUse">
      <stop offset="0" stop-color="#0496fb"/>
      <stop offset=".14" stop-color="#3f72ff"/>
      <stop offset=".28" stop-color="#784aff"/>
      <stop offset=".42" stop-color="#b038ee"/>
      <stop offset=".57" stop-color="#cd40be"/>
      <stop offset=".72" stop-color="#ff415a"/>
      <stop offset=".86" stop-color="#f7941e"/>
      <stop offset=".94" stop-color="#ffe800"/>
    </linearGradient>
  </defs>
  <rect class="st1" x="0" y="0" width="450" height="450" rx="71.79" ry="71.79"/>
  <path class="st0" d="M159.02,81.92h132.27c42.49,0,77.44,34.95,77.44,77.44v131.58c0,42.49-34.95,77.44-77.44,77.44h-132.27c-42.49,0-77.44-34.95-77.44-77.44v-131.58c0-42.49,34.95-77.44,77.44-77.44h0ZM302.25,131.95h0c8.91,0,16.45,7.54,16.45,16.45h0c0,8.91-7.54,16.45-16.45,16.45h0c-9.59,0-16.45-7.54-16.45-16.45h0c0-8.91,6.85-16.45,16.45-16.45h0ZM224.81,147.03h.69c42.49,0,78.13,35.64,78.13,78.13h0c0,43.17-35.64,78.13-78.13,78.13h-.69c-42.49,0-77.44-34.95-77.44-78.13h0c0-42.49,34.95-78.13,77.44-78.13h0ZM224.81,173.75h.69c28.1,0,51.4,23.3,51.4,51.4h0c0,28.78-23.3,52.08-51.4,52.08h-.69c-28.1,0-51.4-23.3-51.4-52.08h0c0-28.1,23.3-51.4,51.4-51.4h0ZM159.71,106.59h130.89c29.47,0,53.45,23.99,53.45,53.45v130.21c0,29.47-23.99,53.45-53.45,53.45h-130.89c-29.47,0-53.45-23.99-53.45-53.45v-130.21c0-29.47,23.99-53.45,53.45-53.45h0Z"/>
</svg>