<?xml version="1.0" encoding="UTF-8"?>
<svg id="Layer_1" xmlns="http://www.w3.org/2000/svg" version="1.1" xmlns:xlink="http://www.w3.org/1999/xlink" viewBox="0 0 248.56 93.87">
  <!-- Generator: Adobe Illustrator 29.6.0, SVG Export Plug-In . SVG Version: 2.1.1 Build 207)  -->
  <defs>
    <style>
      .st0 {
        fill: url(#linear-gradient2);
      }

      .st1 {
        fill: url(#linear-gradient1);
      }

      .st2 {
        fill: #2a3b8e;
      }

      .st3 {
        fill: none;
      }

      .st4 {
        fill: #579542;
      }

      .st5 {
        fill: url(#linear-gradient3);
      }

      .st6 {
        fill: url(#linear-gradient);
      }
    </style>
    <linearGradient id="linear-gradient" x1="0" y1="66.71" x2="107.4" y2="66.71" gradientUnits="userSpaceOnUse">
      <stop offset="0" stop-color="#2a3b8e" stop-opacity="0"/>
      <stop offset=".11" stop-color="#2a3b8e" stop-opacity=".13"/>
      <stop offset=".33" stop-color="#2a3b8e" stop-opacity=".45"/>
      <stop offset=".65" stop-color="#2a3b8e" stop-opacity=".98"/>
      <stop offset=".66" stop-color="#2a3b8e"/>
      <stop offset="1" stop-color="#2a3b8e"/>
    </linearGradient>
    <linearGradient id="linear-gradient1" y1="70.75" y2="70.75" xlink:href="#linear-gradient"/>
    <linearGradient id="linear-gradient2" y1="74.79" y2="74.79" xlink:href="#linear-gradient"/>
    <linearGradient id="linear-gradient3" y1="78.83" y2="78.83" xlink:href="#linear-gradient"/>
  </defs>
  <g>
    <rect class="st6" y="65.77" width="107.4" height="1.89"/>
    <rect class="st1" y="69.81" width="107.4" height="1.89"/>
    <rect class="st0" y="73.85" width="107.4" height="1.89"/>
    <rect class="st5" y="77.89" width="107.4" height="1.89"/>
  </g>
  <g>
    <path class="st2" d="M176.35,69.6h-.48v2.81h.48c.9,0,1.34-.47,1.34-1.4s-.45-1.4-1.34-1.4Z"/>
    <path class="st2" d="M188.52,69.6h-.53v3.31h.53c.86,0,1.29-.57,1.29-1.71,0-1.07-.43-1.6-1.29-1.6Z"/>
    <path class="st2" d="M200.17,69.6h-.48v2.81h.48c.9,0,1.34-.47,1.34-1.4s-.45-1.4-1.34-1.4Z"/>
  </g>
  <g>
    <path class="st2" d="M125.18,65.77v14.01h123.38v-14.01h-123.38ZM135.04,77h-5.78v-8.15h5.29v.82h-2.92v2.47h2.45v.82h-2.45v3.23h3.42v.82ZM146.13,77h-1.81l-3.4-5.16v5.16h-.79v-8.15h1.5l3.71,5.57v-5.57h.79v8.15ZM157.6,69.66h-2v7.33h-2.51v-7.33h-2.01v-.82h6.52v.82ZM168.38,77h-5.78v-8.15h5.29v.82h-2.92v2.47h2.45v.82h-2.45v3.23h3.42v.82ZM177.68,77c-.16-.38-.24-.85-.24-1.42v-.48s-.02-.61-.02-.61c0-.94-.38-1.41-1.14-1.41h-.41v3.92h-2.36v-8.15h3.51c.91,0,1.64.19,2.19.58.55.38.82.9.82,1.54,0,.99-.59,1.63-1.76,1.93.6.22.99.47,1.17.73.18.27.3.78.36,1.55.08.92.23,1.52.46,1.82h-2.57ZM188.81,73.66h-.82v3.34h-2.36v-8.15h3.52c1.99,0,2.99.8,2.99,2.39s-1.11,2.42-3.33,2.42ZM201.5,77c-.16-.38-.24-.85-.24-1.42v-.48s-.02-.61-.02-.61c0-.94-.38-1.41-1.14-1.41h-.41v3.92h-2.36v-8.15h3.51c.91,0,1.64.19,2.19.58.55.38.82.9.82,1.54,0,.99-.59,1.63-1.76,1.93.6.22.99.47,1.17.73.18.27.3.78.36,1.55.08.92.23,1.52.46,1.82h-2.57ZM211.81,77h-2.36v-8.15h2.36v8.15ZM234.49,77h-5.78v-8.15h5.29v.82h-2.92v2.47h2.45v.82h-2.45v3.23h3.42v.82ZM244.47,76.44c-.55.47-1.28.7-2.19.7-2.02,0-3.03-.78-3.03-2.35,0-.13,0-.28.03-.47l1.14-.25c-.09.35-.13.65-.13.9,0,1.01.58,1.52,1.74,1.52.93,0,1.39-.36,1.39-1.09,0-.54-.56-1.02-1.67-1.43-1.6-.59-2.41-1.53-2.41-2.82,0-.73.27-1.32.8-1.77.53-.45,1.24-.67,2.11-.67,1.79,0,2.69.81,2.69,2.42l-1.1.2c.05-.22.07-.4.07-.55,0-.95-.57-1.42-1.73-1.42-.91,0-1.36.33-1.36.98,0,.49.51.91,1.52,1.26,1.96.67,2.94,1.67,2.94,2.99,0,.77-.28,1.39-.82,1.86ZM222.47,76.44c-.55.47-1.28.7-2.19.7-2.02,0-3.03-.78-3.03-2.35,0-.13,0-.28.03-.47l1.14-.25c-.09.35-.13.65-.13.9,0,1.01.58,1.52,1.74,1.52.93,0,1.39-.36,1.39-1.09,0-.54-.56-1.02-1.67-1.43-1.6-.59-2.41-1.53-2.41-2.82,0-.73.27-1.32.8-1.77.53-.45,1.24-.67,2.11-.67,1.79,0,2.69.81,2.69,2.42l-1.1.2c.05-.22.07-.4.07-.55,0-.95-.57-1.42-1.73-1.42-.91,0-1.36.33-1.36.98,0,.49.51.91,1.52,1.26,1.96.67,2.94,1.67,2.94,2.99,0,.77-.28,1.39-.82,1.86Z"/>
    <path class="st3" d="M179.43,73.63c-.18-.27-.57-.51-1.17-.73,1.17-.3,1.76-.94,1.76-1.93,0-.64-.27-1.16-.82-1.54-.55-.38-1.27-.58-2.19-.58h-3.51v8.15h2.36v-3.92h.41c.76,0,1.14.47,1.14,1.41v.61s.02.48.02.48c0,.57.08,1.04.24,1.42h2.57c-.23-.29-.38-.9-.46-1.82-.06-.77-.18-1.29-.36-1.55Z"/>
    <polygon class="st3" points="164.96 72.95 167.42 72.95 167.42 72.13 164.96 72.13 164.96 69.66 167.88 69.66 167.88 68.84 162.6 68.84 162.6 77 168.38 77 168.38 76.18 164.96 76.18 164.96 72.95"/>
    <polygon class="st3" points="151.08 69.66 153.09 69.66 153.09 77 155.6 77 155.6 69.66 157.6 69.66 157.6 68.84 151.08 68.84 151.08 69.66"/>
    <path class="st3" d="M189.15,68.84h-3.52v8.15h2.36v-3.34h.82c2.22,0,3.33-.81,3.33-2.42s-1-2.39-2.99-2.39Z"/>
    <polygon class="st3" points="131.62 72.95 134.07 72.95 134.07 72.13 131.62 72.13 131.62 69.66 134.54 69.66 134.54 68.84 129.25 68.84 129.25 77 135.04 77 135.04 76.18 131.62 76.18 131.62 72.95"/>
    <polygon class="st3" points="145.33 74.42 141.62 68.84 140.12 68.84 140.12 77 140.91 77 140.91 71.84 144.32 77 146.13 77 146.13 68.84 145.33 68.84 145.33 74.42"/>
    <rect class="st3" x="209.45" y="68.84" width="2.36" height="8.15"/>
    <path class="st3" d="M203.24,73.63c-.18-.27-.57-.51-1.17-.73,1.17-.3,1.76-.94,1.76-1.93,0-.64-.27-1.16-.82-1.54-.55-.38-1.27-.58-2.19-.58h-3.51v8.15h2.36v-3.92h.41c.76,0,1.14.47,1.14,1.41v.61s.02.48.02.48c0,.57.08,1.04.24,1.42h2.57c-.23-.29-.38-.9-.46-1.82-.06-.77-.18-1.29-.36-1.55Z"/>
    <polygon class="st3" points="231.08 72.95 233.53 72.95 233.53 72.13 231.08 72.13 231.08 69.66 234 69.66 234 68.84 228.71 68.84 228.71 77 234.49 77 234.49 76.18 231.08 76.18 231.08 72.95"/>
  </g>
  <path class="st2" d="M36.05,25.5l-6.95,1.28c.3-1.38.45-2.54.45-3.48,0-6-3.64-8.99-10.92-8.99-5.74,0-8.62,2.07-8.62,6.2,0,3.1,3.21,5.76,9.64,7.97,12.39,4.26,18.59,10.56,18.59,18.89,0,4.89-1.74,8.81-5.21,11.77-3.48,2.96-8.1,4.44-13.87,4.44-12.77,0-19.16-4.95-19.16-14.85,0-.81.06-1.8.19-2.99l7.22-1.59c-.55,2.19-.83,4.09-.83,5.71,0,6.4,3.67,9.6,11,9.6,5.87,0,8.8-2.31,8.8-6.91,0-3.43-3.51-6.44-10.54-9.03C5.68,39.8.6,33.84.6,25.66c0-4.63,1.69-8.37,5.08-11.2,3.39-2.83,7.84-4.25,13.36-4.25,11.34,0,17,5.1,17,15.3Z"/>
  <path class="st2" d="M87.93,62.65V24.6c4.31,0,8.9-.34,13.79-1.02v39.07h-13.79ZM94.92,9.79c4.28,0,6.42,1.66,6.42,4.99s-2.14,4.99-6.42,4.99-6.42-1.66-6.42-4.99,2.14-4.99,6.42-4.99Z"/>
  <path class="st4" d="M248.56,62.65h-13.79v-28.6c0-2.49-.73-3.74-2.19-3.74-3.38,0-5.06,3.59-5.06,10.77v21.58h-13.79v-28c0-2.85-.66-4.27-1.96-4.27-3.43,0-5.14,3.58-5.14,10.73v21.54h-13.79V24.45c4.66,0,9.26-.32,13.79-.94v6.58c3.25-4.36,7.26-6.54,12.02-6.54,3.98,0,6.94,2.05,8.88,6.16,3.07-4.16,6.91-6.23,11.53-6.23,6.35,0,9.52,3.21,9.52,9.64v29.55Z"/>
  <path class="st2" d="M70.43,23.58c-5.42,0-9.61,2.51-12.58,7.52V11.52h2c1.17,0,1.76-1.42.93-2.25L51.89.39c-.51-.51-1.35-.51-1.86,0l-8.89,8.89c-.83.83-.24,2.25.93,2.25h2v51.13h13.79v-18.97c0-3.22.65-6.24,1.97-9.05,1.31-2.81,2.72-4.21,4.23-4.21s2.19,1.1,2.19,3.29v28.95h13.79v-30.46c0-5.74-3.2-8.62-9.6-8.62Z"/>
  <path class="st4" d="M178.11,47.98l8.89-8.89c.51-.51.51-1.35,0-1.86l-8.89-8.89c-.83-.83-2.25-.24-2.25.93v2h-8.77v-12.41h17.97v-5.18h-32.93v48.97h32.93v-5.18h-17.97v-12.41h8.77v2c0,1.17,1.42,1.76,2.25.93Z"/>
  <path class="st2" d="M142.12,29c-2.37-3.61-5.53-5.42-9.48-5.42-3.7,0-6.85,1.93-9.45,5.78v-5.74c-5.29.66-9.89.98-13.79.98v57.75h-2.16c-1.17,0-1.76,1.42-.93,2.25l8.89,8.89c.51.51,1.35.51,1.86,0l8.89-8.89c.83-.83.24-2.25-.93-2.25h-1.83v-22.83c2.37,2.77,5.39,4.16,9.07,4.16,8.94,0,13.41-6.71,13.41-20.14,0-6.07-1.18-10.91-3.55-14.53ZM127.42,58.11c-2.92,0-4.38-4.92-4.38-14.77s1.52-14.21,4.57-14.21c2.49,0,3.74,4.74,3.74,14.21s-1.31,14.77-3.93,14.77Z"/>
</svg>